<?xml version="1.0" standalone="no"?>
<!DOCTYPE svg PUBLIC "-//W3C//DTD SVG 20010904//EN"
 "http://www.w3.org/TR/2001/REC-SVG-20010904/DTD/svg10.dtd">
<svg version="1.0" xmlns="http://www.w3.org/2000/svg"
 width="700.000000pt" height="700.000000pt" viewBox="0 0 700.000000 700.000000"
 preserveAspectRatio="xMidYMid meet">
<metadata>
Created by potrace 1.14, written by Peter Selinger 2001-2017
</metadata>
<g transform="translate(0.000000,700.000000) scale(0.100000,-0.100000)"
fill="#000000" stroke="none">
<path d="M3425 6854 c-61 -10 -141 -36 -185 -62 -54 -31 -2896 -2247 -2958
-2306 -125 -119 -127 -311 -5 -432 21 -22 298 -241 614 -488 l576 -449 -33
-71 c-69 -146 -69 -147 -69 -687 l0 -485 24 -36 c79 -115 254 -118 329 -5 l27
40 5 308 5 308 65 -32 c44 -21 90 -56 140 -107 117 -117 170 -243 170 -405 0
-162 -53 -288 -169 -405 -121 -121 -239 -170 -407 -170 -131 0 -235 33 -335
105 l-49 35 0 -588 c0 -622 1 -637 49 -729 76 -150 246 -221 433 -182 134 29
221 109 268 248 19 58 20 83 20 602 l0 541 107 -99 c353 -326 832 -698 1331
-1031 l122 -82 108 71 c892 597 1590 1208 1869 1637 70 106 128 231 149 318
40 171 -16 467 -145 769 -16 38 -29 70 -28 71 32 16 1282 1004 1297 1024 96
135 84 295 -32 406 -49 47 -2896 2271 -2949 2303 -75 47 -249 79 -344 65z"/>
</g>
</svg>
